<svg width="2559" height="600" viewBox="0 0 2559 600" fill="none" xmlns="http://www.w3.org/2000/svg">
<path fill-rule="evenodd" clip-rule="evenodd" d="M83.2738 139.589L132.766 106.457C137.66 103.181 144.048 103.181 148.942 106.457L198.434 139.589C202.464 142.287 204.883 146.816 204.883 151.665V196.723C204.883 201.929 202.097 206.738 197.583 209.329L148.09 237.727C143.608 240.298 138.099 240.298 133.618 237.727L84.1258 209.329C79.61 206.738 76.8251 201.929 76.8251 196.723V151.665C76.8251 146.816 79.2439 142.287 83.2738 139.589ZM299.237 106.457L249.744 139.589C245.713 142.287 243.294 146.816 243.294 151.665V196.723C243.294 201.929 246.079 206.738 250.596 209.329L300.089 237.727C304.569 240.298 310.078 240.298 314.559 237.727L364.052 209.329C368.567 206.738 371.352 201.929 371.352 196.723V151.665C371.352 146.816 368.933 142.287 364.904 139.589L315.411 106.457C310.517 103.181 304.13 103.181 299.237 106.457ZM222.41 234.489L172.919 267.622C168.888 270.319 166.469 274.849 166.469 279.698V324.755C166.469 329.961 169.255 334.769 173.771 337.36L223.264 365.76C227.744 368.331 233.253 368.331 237.734 365.76L287.227 337.36C291.742 334.769 294.527 329.961 294.527 324.755V279.698C294.527 274.849 292.108 270.319 288.079 267.622L238.586 234.489C233.692 231.213 227.305 231.213 222.41 234.489ZM55.9412 234.489L6.44871 267.622C2.41877 270.319 0 274.849 0 279.698V324.755C0 329.961 2.78478 334.769 7.30059 337.36L56.7932 365.76C61.2741 368.331 66.7833 368.331 71.2642 365.76L120.757 337.36C125.272 334.769 128.057 329.961 128.057 324.755V279.698C128.057 274.849 125.639 270.319 121.609 267.622L72.1161 234.489C67.2223 231.213 60.8351 231.213 55.9412 234.489ZM83.2738 395.653L132.766 362.522C137.66 359.246 144.048 359.246 148.942 362.522L198.434 395.653C202.464 398.352 204.883 402.881 204.883 407.731V452.788C204.883 457.994 202.097 462.802 197.583 465.393L148.09 493.791C143.608 496.364 138.099 496.364 133.618 493.791L84.1258 465.393C79.61 462.802 76.8251 457.994 76.8251 452.788V407.731C76.8251 402.881 79.2439 398.352 83.2738 395.653ZM299.237 362.522L249.744 395.653C245.713 398.352 243.294 402.881 243.294 407.731V452.788C243.294 457.994 246.079 462.802 250.596 465.393L300.089 493.791C304.569 496.364 310.078 496.364 314.559 493.791L364.052 465.393C368.567 462.802 371.352 457.994 371.352 452.788V407.731C371.352 402.881 368.933 398.352 364.904 395.653L315.411 362.522C310.517 359.246 304.13 359.246 299.237 362.522ZM339.388 267.622L388.881 234.489C393.774 231.213 400.161 231.213 405.056 234.489L454.548 267.622C458.578 270.319 460.996 274.849 460.996 279.698V324.755C460.996 329.961 458.213 334.769 453.696 337.36L404.204 365.76C399.722 368.331 394.213 368.331 389.733 365.76L340.24 337.36C335.724 334.769 332.939 329.961 332.939 324.755V279.698C332.939 274.849 335.358 270.319 339.388 267.622Z" fill="url(#paint0_linear_5_18)"/>
<mask id="path-2-outside-1_5_18" maskUnits="userSpaceOnUse" x="593" y="141" width="1956" height="306" fill="black">
<rect fill="white" x="593" y="141" width="1956" height="306"/>
<path d="M769 160.8V206H652.6V277.6H741.8V322H652.6V440H596.6V160.8H769ZM864.709 252.8C871.909 241.067 881.243 231.867 892.709 225.2C904.443 218.533 917.776 215.2 932.709 215.2V274H917.909C900.309 274 886.976 278.133 877.909 286.4C869.109 294.667 864.709 309.067 864.709 329.6V440H808.709V218.4H864.709V252.8ZM956.028 328.4C956.028 306 960.428 286.133 969.228 268.8C978.295 251.467 990.428 238.133 1005.63 228.8C1021.09 219.467 1038.29 214.8 1057.23 214.8C1073.76 214.8 1088.16 218.133 1100.43 224.8C1112.96 231.467 1122.96 239.867 1130.43 250V218.4H1186.83V440H1130.43V407.6C1123.23 418 1113.23 426.667 1100.43 433.6C1087.89 440.267 1073.36 443.6 1056.83 443.6C1038.16 443.6 1021.09 438.8 1005.63 429.2C990.428 419.6 978.295 406.133 969.228 388.8C960.428 371.2 956.028 351.067 956.028 328.4ZM1130.43 329.2C1130.43 315.6 1127.76 304 1122.43 294.4C1117.09 284.533 1109.89 277.067 1100.83 272C1091.76 266.667 1082.03 264 1071.63 264C1061.23 264 1051.63 266.533 1042.83 271.6C1034.03 276.667 1026.83 284.133 1021.23 294C1015.89 303.6 1013.23 315.067 1013.23 328.4C1013.23 341.733 1015.89 353.467 1021.23 363.6C1026.83 373.467 1034.03 381.067 1042.83 386.4C1051.89 391.733 1061.49 394.4 1071.63 394.4C1082.03 394.4 1091.76 391.867 1100.83 386.8C1109.89 381.467 1117.09 374 1122.43 364.4C1127.76 354.533 1130.43 342.8 1130.43 329.2ZM1364.32 215.2C1390.72 215.2 1412.06 223.6 1428.32 240.4C1444.59 256.933 1452.72 280.133 1452.72 310V440H1396.72V317.6C1396.72 300 1392.32 286.533 1383.52 277.2C1374.72 267.6 1362.72 262.8 1347.52 262.8C1332.06 262.8 1319.79 267.6 1310.72 277.2C1301.92 286.533 1297.52 300 1297.52 317.6V440H1241.52V218.4H1297.52V246C1304.99 236.4 1314.46 228.933 1325.92 223.6C1337.66 218 1350.46 215.2 1364.32 215.2ZM1492.38 300C1492.38 272.533 1498.51 248 1510.78 226.4C1523.31 204.533 1540.24 187.6 1561.58 175.6C1583.18 163.333 1607.31 157.2 1633.98 157.2C1665.18 157.2 1692.51 165.2 1715.98 181.2C1739.44 197.2 1755.84 219.333 1765.18 247.6H1700.78C1694.38 234.267 1685.31 224.267 1673.58 217.6C1662.11 210.933 1648.78 207.6 1633.58 207.6C1617.31 207.6 1602.78 211.467 1589.98 219.2C1577.44 226.667 1567.58 237.333 1560.38 251.2C1553.44 265.067 1549.98 281.333 1549.98 300C1549.98 318.4 1553.44 334.667 1560.38 348.8C1567.58 362.667 1577.44 373.467 1589.98 381.2C1602.78 388.667 1617.31 392.4 1633.58 392.4C1648.78 392.4 1662.11 389.067 1673.58 382.4C1685.31 375.467 1694.38 365.333 1700.78 352H1765.18C1755.84 380.533 1739.44 402.8 1715.98 418.8C1692.78 434.533 1665.44 442.4 1633.98 442.4C1607.31 442.4 1583.18 436.4 1561.58 424.4C1540.24 412.133 1523.31 395.2 1510.78 373.6C1498.51 352 1492.38 327.467 1492.38 300ZM1911.41 443.6C1890.07 443.6 1870.87 438.933 1853.81 429.6C1836.74 420 1823.27 406.533 1813.41 389.2C1803.81 371.867 1799.01 351.867 1799.01 329.2C1799.01 306.533 1803.94 286.533 1813.81 269.2C1823.94 251.867 1837.67 238.533 1855.01 229.2C1872.34 219.6 1891.67 214.8 1913.01 214.8C1934.34 214.8 1953.67 219.6 1971.01 229.2C1988.34 238.533 2001.94 251.867 2011.81 269.2C2021.94 286.533 2027.01 306.533 2027.01 329.2C2027.01 351.867 2021.81 371.867 2011.41 389.2C2001.27 406.533 1987.41 420 1969.81 429.6C1952.47 438.933 1933.01 443.6 1911.41 443.6ZM1911.41 394.8C1921.54 394.8 1931.01 392.4 1939.81 387.6C1948.87 382.533 1956.07 375.067 1961.41 365.2C1966.74 355.333 1969.41 343.333 1969.41 329.2C1969.41 308.133 1963.81 292 1952.61 280.8C1941.67 269.333 1928.21 263.6 1912.21 263.6C1896.21 263.6 1882.74 269.333 1871.81 280.8C1861.14 292 1855.81 308.133 1855.81 329.2C1855.81 350.267 1861.01 366.533 1871.41 378C1882.07 389.2 1895.41 394.8 1911.41 394.8ZM2053.68 328.4C2053.68 306 2058.08 286.133 2066.88 268.8C2075.95 251.467 2088.22 238.133 2103.68 228.8C2119.15 219.467 2136.35 214.8 2155.28 214.8C2169.68 214.8 2183.42 218 2196.48 224.4C2209.55 230.533 2219.95 238.8 2227.68 249.2V144H2284.48V440H2227.68V407.2C2220.75 418.133 2211.02 426.933 2198.48 433.6C2185.95 440.267 2171.42 443.6 2154.88 443.6C2136.22 443.6 2119.15 438.8 2103.68 429.2C2088.22 419.6 2075.95 406.133 2066.88 388.8C2058.08 371.2 2053.68 351.067 2053.68 328.4ZM2228.08 329.2C2228.08 315.6 2225.42 304 2220.08 294.4C2214.75 284.533 2207.55 277.067 2198.48 272C2189.42 266.667 2179.68 264 2169.28 264C2158.88 264 2149.28 266.533 2140.48 271.6C2131.68 276.667 2124.48 284.133 2118.88 294C2113.55 303.6 2110.88 315.067 2110.88 328.4C2110.88 341.733 2113.55 353.467 2118.88 363.6C2124.48 373.467 2131.68 381.067 2140.48 386.4C2149.55 391.733 2159.15 394.4 2169.28 394.4C2179.68 394.4 2189.42 391.867 2198.48 386.8C2207.55 381.467 2214.75 374 2220.08 364.4C2225.42 354.533 2228.08 342.8 2228.08 329.2ZM2545.18 324.4C2545.18 332.4 2544.64 339.6 2543.58 346H2381.58C2382.91 362 2388.51 374.533 2398.38 383.6C2408.24 392.667 2420.38 397.2 2434.78 397.2C2455.58 397.2 2470.38 388.267 2479.18 370.4H2539.58C2533.18 391.733 2520.91 409.333 2502.78 423.2C2484.64 436.8 2462.38 443.6 2435.98 443.6C2414.64 443.6 2395.44 438.933 2378.38 429.6C2361.58 420 2348.38 406.533 2338.78 389.2C2329.44 371.867 2324.78 351.867 2324.78 329.2C2324.78 306.267 2329.44 286.133 2338.78 268.8C2348.11 251.467 2361.18 238.133 2377.98 228.8C2394.78 219.467 2414.11 214.8 2435.98 214.8C2457.04 214.8 2475.84 219.333 2492.38 228.4C2509.18 237.467 2522.11 250.4 2531.18 267.2C2540.51 283.733 2545.18 302.8 2545.18 324.4ZM2487.18 308.4C2486.91 294 2481.71 282.533 2471.58 274C2461.44 265.2 2449.04 260.8 2434.38 260.8C2420.51 260.8 2408.78 265.067 2399.18 273.6C2389.84 281.867 2384.11 293.467 2381.98 308.4H2487.18Z"/>
</mask>
<path d="M769 160.8V206H652.6V277.6H741.8V322H652.6V440H596.6V160.8H769ZM864.709 252.8C871.909 241.067 881.243 231.867 892.709 225.2C904.443 218.533 917.776 215.2 932.709 215.2V274H917.909C900.309 274 886.976 278.133 877.909 286.4C869.109 294.667 864.709 309.067 864.709 329.6V440H808.709V218.4H864.709V252.8ZM956.028 328.4C956.028 306 960.428 286.133 969.228 268.8C978.295 251.467 990.428 238.133 1005.63 228.8C1021.09 219.467 1038.29 214.8 1057.23 214.8C1073.76 214.8 1088.16 218.133 1100.43 224.8C1112.96 231.467 1122.96 239.867 1130.43 250V218.4H1186.83V440H1130.43V407.6C1123.23 418 1113.23 426.667 1100.43 433.6C1087.89 440.267 1073.36 443.6 1056.83 443.6C1038.16 443.6 1021.09 438.8 1005.63 429.2C990.428 419.6 978.295 406.133 969.228 388.8C960.428 371.2 956.028 351.067 956.028 328.4ZM1130.43 329.2C1130.43 315.6 1127.76 304 1122.43 294.4C1117.09 284.533 1109.89 277.067 1100.83 272C1091.76 266.667 1082.03 264 1071.63 264C1061.23 264 1051.63 266.533 1042.83 271.6C1034.03 276.667 1026.83 284.133 1021.23 294C1015.89 303.6 1013.23 315.067 1013.23 328.4C1013.23 341.733 1015.89 353.467 1021.23 363.6C1026.83 373.467 1034.03 381.067 1042.83 386.4C1051.89 391.733 1061.49 394.4 1071.63 394.4C1082.03 394.4 1091.76 391.867 1100.83 386.8C1109.89 381.467 1117.09 374 1122.43 364.4C1127.76 354.533 1130.43 342.8 1130.43 329.2ZM1364.32 215.2C1390.72 215.2 1412.06 223.6 1428.32 240.4C1444.59 256.933 1452.72 280.133 1452.72 310V440H1396.72V317.6C1396.72 300 1392.32 286.533 1383.52 277.2C1374.72 267.6 1362.72 262.8 1347.52 262.8C1332.06 262.8 1319.79 267.6 1310.72 277.2C1301.92 286.533 1297.52 300 1297.52 317.6V440H1241.52V218.4H1297.52V246C1304.99 236.4 1314.46 228.933 1325.92 223.6C1337.66 218 1350.46 215.2 1364.32 215.2ZM1492.38 300C1492.38 272.533 1498.51 248 1510.78 226.4C1523.31 204.533 1540.24 187.6 1561.58 175.6C1583.18 163.333 1607.31 157.2 1633.98 157.2C1665.18 157.2 1692.51 165.2 1715.98 181.2C1739.44 197.2 1755.84 219.333 1765.18 247.6H1700.78C1694.38 234.267 1685.31 224.267 1673.58 217.6C1662.11 210.933 1648.78 207.6 1633.58 207.6C1617.31 207.6 1602.78 211.467 1589.98 219.2C1577.44 226.667 1567.58 237.333 1560.38 251.2C1553.44 265.067 1549.98 281.333 1549.98 300C1549.98 318.4 1553.44 334.667 1560.38 348.8C1567.58 362.667 1577.44 373.467 1589.98 381.2C1602.78 388.667 1617.31 392.4 1633.58 392.4C1648.78 392.4 1662.11 389.067 1673.58 382.4C1685.31 375.467 1694.38 365.333 1700.78 352H1765.18C1755.84 380.533 1739.44 402.8 1715.98 418.8C1692.78 434.533 1665.44 442.4 1633.98 442.4C1607.31 442.4 1583.18 436.4 1561.58 424.4C1540.24 412.133 1523.31 395.2 1510.78 373.6C1498.51 352 1492.38 327.467 1492.38 300ZM1911.41 443.6C1890.07 443.6 1870.87 438.933 1853.81 429.6C1836.74 420 1823.27 406.533 1813.41 389.2C1803.81 371.867 1799.01 351.867 1799.01 329.2C1799.01 306.533 1803.94 286.533 1813.81 269.2C1823.94 251.867 1837.67 238.533 1855.01 229.2C1872.34 219.6 1891.67 214.8 1913.01 214.8C1934.34 214.8 1953.67 219.6 1971.01 229.2C1988.34 238.533 2001.94 251.867 2011.81 269.2C2021.94 286.533 2027.01 306.533 2027.01 329.2C2027.01 351.867 2021.81 371.867 2011.41 389.2C2001.27 406.533 1987.41 420 1969.81 429.6C1952.47 438.933 1933.01 443.6 1911.41 443.6ZM1911.41 394.8C1921.54 394.8 1931.01 392.4 1939.81 387.6C1948.87 382.533 1956.07 375.067 1961.41 365.2C1966.74 355.333 1969.41 343.333 1969.41 329.2C1969.41 308.133 1963.81 292 1952.61 280.8C1941.67 269.333 1928.21 263.6 1912.21 263.6C1896.21 263.6 1882.74 269.333 1871.81 280.8C1861.14 292 1855.81 308.133 1855.81 329.2C1855.81 350.267 1861.01 366.533 1871.41 378C1882.07 389.2 1895.41 394.8 1911.41 394.8ZM2053.68 328.4C2053.68 306 2058.08 286.133 2066.88 268.8C2075.95 251.467 2088.22 238.133 2103.68 228.8C2119.15 219.467 2136.35 214.8 2155.28 214.8C2169.68 214.8 2183.42 218 2196.48 224.4C2209.55 230.533 2219.95 238.8 2227.68 249.2V144H2284.48V440H2227.68V407.2C2220.75 418.133 2211.02 426.933 2198.48 433.6C2185.95 440.267 2171.42 443.6 2154.88 443.6C2136.22 443.6 2119.15 438.8 2103.68 429.2C2088.22 419.6 2075.95 406.133 2066.88 388.8C2058.08 371.2 2053.68 351.067 2053.68 328.4ZM2228.08 329.2C2228.08 315.6 2225.42 304 2220.08 294.4C2214.75 284.533 2207.55 277.067 2198.48 272C2189.42 266.667 2179.68 264 2169.28 264C2158.88 264 2149.28 266.533 2140.48 271.6C2131.68 276.667 2124.48 284.133 2118.88 294C2113.55 303.6 2110.88 315.067 2110.88 328.4C2110.88 341.733 2113.55 353.467 2118.88 363.6C2124.48 373.467 2131.68 381.067 2140.48 386.4C2149.55 391.733 2159.15 394.4 2169.28 394.4C2179.68 394.4 2189.42 391.867 2198.48 386.8C2207.55 381.467 2214.75 374 2220.08 364.4C2225.42 354.533 2228.08 342.8 2228.08 329.2ZM2545.18 324.4C2545.18 332.4 2544.64 339.6 2543.58 346H2381.58C2382.91 362 2388.51 374.533 2398.38 383.6C2408.24 392.667 2420.38 397.2 2434.78 397.2C2455.58 397.2 2470.38 388.267 2479.18 370.4H2539.58C2533.18 391.733 2520.91 409.333 2502.78 423.2C2484.64 436.8 2462.38 443.6 2435.98 443.6C2414.64 443.6 2395.44 438.933 2378.38 429.6C2361.58 420 2348.38 406.533 2338.78 389.2C2329.44 371.867 2324.78 351.867 2324.78 329.2C2324.78 306.267 2329.44 286.133 2338.78 268.8C2348.11 251.467 2361.18 238.133 2377.98 228.8C2394.78 219.467 2414.11 214.8 2435.98 214.8C2457.04 214.8 2475.84 219.333 2492.38 228.4C2509.18 237.467 2522.11 250.4 2531.18 267.2C2540.51 283.733 2545.18 302.8 2545.18 324.4ZM2487.18 308.4C2486.91 294 2481.71 282.533 2471.58 274C2461.44 265.2 2449.04 260.8 2434.38 260.8C2420.51 260.8 2408.78 265.067 2399.18 273.6C2389.84 281.867 2384.11 293.467 2381.98 308.4H2487.18Z" fill="#EDEDED"/>
<path d="M769 160.8H772V157.8H769V160.8ZM769 206V209H772V206H769ZM652.6 206V203H649.6V206H652.6ZM652.6 277.6H649.6V280.6H652.6V277.6ZM741.8 277.6H744.8V274.6H741.8V277.6ZM741.8 322V325H744.8V322H741.8ZM652.6 322V319H649.6V322H652.6ZM652.6 440V443H655.6V440H652.6ZM596.6 440H593.6V443H596.6V440ZM596.6 160.8V157.8H593.6V160.8H596.6ZM769 160.8H766V206H769H772V160.8H769ZM769 206V203H652.6V206V209H769V206ZM652.6 206H649.6V277.6H652.6H655.6V206H652.6ZM652.6 277.6V280.6H741.8V277.6V274.6H652.6V277.6ZM741.8 277.6H738.8V322H741.8H744.8V277.6H741.8ZM741.8 322V319H652.6V322V325H741.8V322ZM652.6 322H649.6V440H652.6H655.6V322H652.6ZM652.6 440V437H596.6V440V443H652.6V440ZM596.6 440H599.6V160.8H596.6H593.6V440H596.6ZM596.6 160.8V163.8H769V160.8V157.8H596.6V160.8ZM864.709 252.8H861.709V263.425L867.266 254.369L864.709 252.8ZM892.709 225.2L891.227 222.592L891.214 222.599L891.202 222.606L892.709 225.2ZM932.709 215.2H935.709V212.2H932.709V215.2ZM932.709 274V277H935.709V274H932.709ZM877.909 286.4L875.888 284.183L875.872 284.198L875.855 284.213L877.909 286.4ZM864.709 440V443H867.709V440H864.709ZM808.709 440H805.709V443H808.709V440ZM808.709 218.4V215.4H805.709V218.4H808.709ZM864.709 218.4H867.709V215.4H864.709V218.4ZM864.709 252.8L867.266 254.369C874.217 243.042 883.196 234.201 894.217 227.794L892.709 225.2L891.202 222.606C879.289 229.532 869.602 239.091 862.152 251.231L864.709 252.8ZM892.709 225.2L894.191 227.808C905.426 221.425 918.239 218.2 932.709 218.2V215.2V212.2C917.313 212.2 903.459 215.642 891.227 222.592L892.709 225.2ZM932.709 215.2H929.709V274H932.709H935.709V215.2H932.709ZM932.709 274V271H917.909V274V277H932.709V274ZM917.909 274V271C899.884 271 885.707 275.231 875.888 284.183L877.909 286.4L879.931 288.617C888.246 281.036 900.735 277 917.909 277V274ZM877.909 286.4L875.855 284.213C866.143 293.337 861.709 308.787 861.709 329.6H864.709H867.709C867.709 309.346 872.076 295.996 879.963 288.587L877.909 286.4ZM864.709 329.6H861.709V440H864.709H867.709V329.6H864.709ZM864.709 440V437H808.709V440V443H864.709V440ZM808.709 440H811.709V218.4H808.709H805.709V440H808.709ZM808.709 218.4V221.4H864.709V218.4V215.4H808.709V218.4ZM864.709 218.4H861.709V252.8H864.709H867.709V218.4H864.709ZM969.228 268.8L966.57 267.409L966.561 267.426L966.553 267.442L969.228 268.8ZM1005.63 228.8L1004.08 226.231L1004.07 226.237L1004.06 226.243L1005.63 228.8ZM1100.43 224.8L1099 227.436L1099.01 227.442L1099.02 227.449L1100.43 224.8ZM1130.43 250L1128.01 251.78L1133.43 259.129V250H1130.43ZM1130.43 218.4V215.4H1127.43V218.4H1130.43ZM1186.83 218.4H1189.83V215.4H1186.83V218.4ZM1186.83 440V443H1189.83V440H1186.83ZM1130.43 440H1127.43V443H1130.43V440ZM1130.43 407.6H1133.43V397.996L1127.96 405.892L1130.43 407.6ZM1100.43 433.6L1101.84 436.249L1101.85 436.243L1101.86 436.238L1100.43 433.6ZM1005.63 429.2L1004.03 431.736L1004.04 431.743L1004.05 431.749L1005.63 429.2ZM969.228 388.8L966.545 390.142L966.557 390.166L966.57 390.19L969.228 388.8ZM1122.43 294.4L1119.79 295.827L1119.8 295.842L1119.81 295.857L1122.43 294.4ZM1100.83 272L1099.31 274.586L1099.34 274.603L1099.36 274.619L1100.83 272ZM1042.83 271.6L1041.33 269L1041.33 269L1042.83 271.6ZM1021.23 294L1018.62 292.519L1018.61 292.531L1018.61 292.543L1021.23 294ZM1021.23 363.6L1018.57 364.997L1018.6 365.039L1018.62 365.081L1021.23 363.6ZM1042.83 386.4L1041.27 388.966L1041.29 388.976L1041.31 388.986L1042.83 386.4ZM1100.83 386.8L1102.29 389.419L1102.32 389.403L1102.35 389.386L1100.83 386.8ZM1122.43 364.4L1125.05 365.857L1125.06 365.842L1125.07 365.827L1122.43 364.4ZM956.028 328.4H959.028C959.028 306.4 963.347 287.011 971.903 270.158L969.228 268.8L966.553 267.442C957.509 285.256 953.028 305.6 953.028 328.4H956.028ZM969.228 268.8L971.886 270.19C980.727 253.289 992.503 240.38 1007.2 231.357L1005.63 228.8L1004.06 226.243C988.353 235.887 975.862 249.644 966.57 267.409L969.228 268.8ZM1005.63 228.8L1007.18 231.369C1022.15 222.331 1038.81 217.8 1057.23 217.8V214.8V211.8C1037.78 211.8 1020.04 216.602 1004.08 226.231L1005.63 228.8ZM1057.23 214.8V217.8C1073.35 217.8 1087.24 221.049 1099 227.436L1100.43 224.8L1101.86 222.164C1089.08 215.218 1074.17 211.8 1057.23 211.8V214.8ZM1100.43 224.8L1099.02 227.449C1111.21 233.932 1120.84 242.051 1128.01 251.78L1130.43 250L1132.84 248.22C1125.08 237.682 1114.72 229.002 1101.84 222.151L1100.43 224.8ZM1130.43 250H1133.43V218.4H1130.43H1127.43V250H1130.43ZM1130.43 218.4V221.4H1186.83V218.4V215.4H1130.43V218.4ZM1186.83 218.4H1183.83V440H1186.83H1189.83V218.4H1186.83ZM1186.83 440V437H1130.43V440V443H1186.83V440ZM1130.43 440H1133.43V407.6H1130.43H1127.43V440H1130.43ZM1130.43 407.6L1127.96 405.892C1121.07 415.85 1111.45 424.219 1099 430.962L1100.43 433.6L1101.86 436.238C1115.01 429.114 1125.39 420.15 1132.89 409.308L1130.43 407.6ZM1100.43 433.6L1099.02 430.951C1086.99 437.352 1072.95 440.6 1056.83 440.6V443.6V446.6C1073.77 446.6 1088.8 443.181 1101.84 436.249L1100.43 433.6ZM1056.83 443.6V440.6C1038.71 440.6 1022.19 435.948 1007.21 426.651L1005.63 429.2L1004.05 431.749C1020 441.652 1037.62 446.6 1056.83 446.6V443.6ZM1005.63 429.2L1007.23 426.664C992.516 417.37 980.73 404.317 971.886 387.41L969.228 388.8L966.57 390.19C975.859 407.95 988.34 421.83 1004.03 431.736L1005.63 429.2ZM969.228 388.8L971.911 387.458C963.349 370.334 959.028 350.672 959.028 328.4H956.028H953.028C953.028 351.461 957.507 372.066 966.545 390.142L969.228 388.8ZM1130.43 329.2H1133.43C1133.43 315.21 1130.68 303.083 1125.05 292.943L1122.43 294.4L1119.81 295.857C1124.84 304.917 1127.43 315.99 1127.43 329.2H1130.43ZM1122.43 294.4L1125.07 292.973C1119.49 282.647 1111.9 274.748 1102.29 269.381L1100.83 272L1099.36 274.619C1107.89 279.385 1114.7 286.419 1119.79 295.827L1122.43 294.4ZM1100.83 272L1102.35 269.414C1092.83 263.813 1082.57 261 1071.63 261V264V267C1081.49 267 1090.7 269.52 1099.31 274.586L1100.83 272ZM1071.63 264V261C1060.72 261 1050.6 263.665 1041.33 269L1042.83 271.6L1044.33 274.2C1052.66 269.402 1061.74 267 1071.63 267V264ZM1042.83 271.6L1041.33 269C1032.01 274.364 1024.45 282.243 1018.62 292.519L1021.23 294L1023.84 295.481C1029.2 286.024 1036.04 278.969 1044.33 274.2L1042.83 271.6ZM1021.23 294L1018.61 292.543C1012.98 302.675 1010.23 314.665 1010.23 328.4H1013.23H1016.23C1016.23 315.468 1018.81 304.525 1023.85 295.457L1021.23 294ZM1013.23 328.4H1010.23C1010.23 342.14 1012.98 354.367 1018.57 364.997L1021.23 363.6L1023.88 362.203C1018.81 352.566 1016.23 341.327 1016.23 328.4H1013.23ZM1021.23 363.6L1018.62 365.081C1024.45 375.346 1031.99 383.34 1041.27 388.966L1042.83 386.4L1044.38 383.834C1036.07 378.793 1029.21 371.587 1023.84 362.119L1021.23 363.6ZM1042.83 386.4L1041.31 388.986C1050.82 394.58 1060.94 397.4 1071.63 397.4V394.4V391.4C1062.05 391.4 1052.97 388.887 1044.35 383.814L1042.83 386.4ZM1071.63 394.4V397.4C1082.54 397.4 1092.78 394.736 1102.29 389.419L1100.83 386.8L1099.36 384.181C1090.75 388.998 1081.52 391.4 1071.63 391.4V394.4ZM1100.83 386.8L1102.35 389.386C1111.9 383.769 1119.47 375.903 1125.05 365.857L1122.43 364.4L1119.81 362.943C1114.72 372.097 1107.89 379.164 1099.31 384.214L1100.83 386.8ZM1122.43 364.4L1125.07 365.827C1130.68 355.438 1133.43 343.193 1133.43 329.2H1130.43H1127.43C1127.43 342.407 1124.84 353.629 1119.79 362.973L1122.43 364.4ZM1428.32 240.4L1426.17 242.487L1426.17 242.495L1426.18 242.504L1428.32 240.4ZM1452.72 440V443H1455.72V440H1452.72ZM1396.72 440H1393.72V443H1396.72V440ZM1383.52 277.2L1381.31 279.227L1381.32 279.243L1381.34 279.258L1383.52 277.2ZM1310.72 277.2L1308.54 275.14L1308.54 275.142L1310.72 277.2ZM1297.52 440V443H1300.52V440H1297.52ZM1241.52 440H1238.52V443H1241.52V440ZM1241.52 218.4V215.4H1238.52V218.4H1241.52ZM1297.52 218.4H1300.52V215.4H1297.52V218.4ZM1297.52 246H1294.52V254.744L1299.89 247.842L1297.52 246ZM1325.92 223.6L1327.19 226.32L1327.2 226.314L1327.21 226.307L1325.92 223.6ZM1364.32 215.2V218.2C1390.02 218.2 1410.54 226.348 1426.17 242.487L1428.32 240.4L1430.48 238.313C1413.57 220.852 1391.42 212.2 1364.32 212.2V215.2ZM1428.32 240.4L1426.18 242.504C1441.75 258.328 1449.72 280.684 1449.72 310H1452.72H1455.72C1455.72 279.582 1447.43 255.539 1430.46 238.296L1428.32 240.4ZM1452.72 310H1449.72V440H1452.72H1455.72V310H1452.72ZM1452.72 440V437H1396.72V440V443H1452.72V440ZM1396.72 440H1399.72V317.6H1396.72H1393.72V440H1396.72ZM1396.72 317.6H1399.72C1399.72 299.523 1395.2 285.211 1385.7 275.142L1383.52 277.2L1381.34 279.258C1389.45 287.855 1393.72 300.477 1393.72 317.6H1396.72ZM1383.52 277.2L1385.73 275.173C1376.27 264.848 1363.41 259.8 1347.52 259.8V262.8V265.8C1362.03 265.8 1373.17 270.352 1381.31 279.227L1383.52 277.2ZM1347.52 262.8V259.8C1331.38 259.8 1318.27 264.837 1308.54 275.14L1310.72 277.2L1312.9 279.26C1321.31 270.363 1332.73 265.8 1347.52 265.8V262.8ZM1310.72 277.2L1308.54 275.142C1299.05 285.211 1294.52 299.523 1294.52 317.6H1297.52H1300.52C1300.52 300.477 1304.8 287.855 1312.9 279.258L1310.72 277.2ZM1297.52 317.6H1294.52V440H1297.52H1300.52V317.6H1297.52ZM1297.52 440V437H1241.52V440V443H1297.52V440ZM1241.52 440H1244.52V218.4H1241.52H1238.52V440H1241.52ZM1241.52 218.4V221.4H1297.52V218.4V215.4H1241.52V218.4ZM1297.52 218.4H1294.52V246H1297.52H1300.52V218.4H1297.52ZM1297.52 246L1299.89 247.842C1307.05 238.633 1316.13 231.461 1327.19 226.32L1325.92 223.6L1324.66 220.88C1312.78 226.406 1302.92 234.167 1295.15 244.158L1297.52 246ZM1325.92 223.6L1327.21 226.307C1338.52 220.913 1350.87 218.2 1364.32 218.2V215.2V212.2C1350.04 212.2 1336.79 215.087 1324.63 220.893L1325.92 223.6ZM1510.78 226.4L1508.17 224.908L1508.17 224.919L1510.78 226.4ZM1561.58 175.6L1563.05 178.215L1563.06 178.209L1561.58 175.6ZM1765.18 247.6V250.6H1769.32L1768.02 246.659L1765.18 247.6ZM1700.78 247.6L1698.07 248.898L1698.89 250.6H1700.78V247.6ZM1673.58 217.6L1672.07 220.194L1672.08 220.201L1672.09 220.208L1673.58 217.6ZM1589.98 219.2L1591.51 221.777L1591.52 221.773L1591.53 221.768L1589.98 219.2ZM1560.38 251.2L1557.71 249.818L1557.7 249.838L1557.69 249.858L1560.38 251.2ZM1560.38 348.8L1557.68 350.121L1557.7 350.152L1557.71 350.182L1560.38 348.8ZM1589.98 381.2L1588.4 383.753L1588.43 383.773L1588.46 383.791L1589.98 381.2ZM1673.58 382.4L1675.08 384.994L1675.09 384.988L1675.1 384.983L1673.58 382.4ZM1700.78 352V349H1698.89L1698.07 350.702L1700.78 352ZM1765.18 352L1768.03 352.933L1769.31 349H1765.18V352ZM1715.98 418.8L1717.66 421.283L1717.67 421.279L1715.98 418.8ZM1561.58 424.4L1560.08 427.001L1560.1 427.012L1560.12 427.022L1561.58 424.4ZM1510.78 373.6L1508.17 375.081L1508.17 375.094L1508.18 375.106L1510.78 373.6ZM1492.38 300H1495.38C1495.38 272.996 1501.4 248.983 1513.38 227.881L1510.78 226.4L1508.17 224.919C1495.62 247.017 1489.38 272.07 1489.38 300H1492.38ZM1510.78 226.4L1513.38 227.892C1525.65 206.48 1542.2 189.941 1563.05 178.215L1561.58 175.6L1560.1 172.985C1538.28 185.259 1520.97 202.587 1508.17 224.908L1510.78 226.4ZM1561.58 175.6L1563.06 178.209C1584.17 166.217 1607.79 160.2 1633.98 160.2V157.2V154.2C1606.83 154.2 1582.18 160.449 1560.09 172.991L1561.58 175.6ZM1633.98 157.2V160.2C1664.63 160.2 1691.37 168.052 1714.29 183.679L1715.98 181.2L1717.67 178.721C1693.65 162.348 1665.72 154.2 1633.98 154.2V157.2ZM1715.98 181.2L1714.29 183.679C1737.18 199.289 1753.19 220.868 1762.33 248.541L1765.18 247.6L1768.02 246.659C1758.49 217.799 1741.7 195.111 1717.67 178.721L1715.98 181.2ZM1765.18 247.6V244.6H1700.78V247.6V250.6H1765.18V247.6ZM1700.78 247.6L1703.48 246.302C1696.84 232.473 1687.37 221.989 1675.06 214.992L1673.58 217.6L1672.09 220.208C1683.24 226.544 1691.91 236.061 1698.07 248.898L1700.78 247.6ZM1673.58 217.6L1675.08 215.006C1663.09 208.037 1649.23 204.6 1633.58 204.6V207.6V210.6C1648.32 210.6 1661.12 213.83 1672.07 220.194L1673.58 217.6ZM1633.58 207.6V204.6C1616.81 204.6 1601.73 208.592 1588.42 216.632L1589.98 219.2L1591.53 221.768C1603.82 214.342 1617.81 210.6 1633.58 210.6V207.6ZM1589.98 219.2L1588.44 216.623C1575.39 224.395 1565.15 235.492 1557.71 249.818L1560.38 251.2L1563.04 252.582C1570 239.175 1579.49 228.938 1591.51 221.777L1589.98 219.2ZM1560.38 251.2L1557.69 249.858C1550.51 264.218 1546.98 280.962 1546.98 300H1549.98H1552.98C1552.98 281.705 1556.37 265.915 1563.06 252.542L1560.38 251.2ZM1549.98 300H1546.98C1546.98 318.781 1550.52 335.513 1557.68 350.121L1560.38 348.8L1563.07 347.479C1556.37 333.821 1552.98 318.019 1552.98 300H1549.98ZM1560.38 348.8L1557.71 350.182C1565.15 364.5 1575.38 375.717 1588.4 383.753L1589.98 381.2L1591.55 378.647C1579.51 371.216 1570 360.833 1563.04 347.418L1560.38 348.8ZM1589.98 381.2L1588.46 383.791C1601.77 391.551 1616.83 395.4 1633.58 395.4V392.4V389.4C1617.79 389.4 1603.78 385.782 1591.49 378.609L1589.98 381.2ZM1633.58 392.4V395.4C1649.23 395.4 1663.09 391.963 1675.08 384.994L1673.58 382.4L1672.07 379.806C1661.12 386.17 1648.32 389.4 1633.58 389.4V392.4ZM1673.58 382.4L1675.1 384.983C1687.39 377.721 1696.85 367.119 1703.48 353.298L1700.78 352L1698.07 350.702C1691.9 363.547 1683.23 373.212 1672.05 379.817L1673.58 382.4ZM1700.78 352V355H1765.18V352V349H1700.78V352ZM1765.18 352L1762.32 351.067C1753.18 379.01 1737.17 400.716 1714.29 416.321L1715.98 418.8L1717.67 421.279C1741.71 404.883 1758.5 382.057 1768.03 352.933L1765.18 352ZM1715.98 418.8L1714.29 416.317C1691.65 431.673 1664.92 439.4 1633.98 439.4V442.4V445.4C1665.97 445.4 1693.9 437.394 1717.66 421.283L1715.98 418.8ZM1633.98 442.4V439.4C1607.78 439.4 1584.15 433.511 1563.03 421.778L1561.58 424.4L1560.12 427.022C1582.2 439.289 1606.84 445.4 1633.98 445.4V442.4ZM1561.58 424.4L1563.07 421.799C1542.2 409.799 1525.64 393.246 1513.37 372.094L1510.78 373.6L1508.18 375.106C1520.97 397.154 1538.28 414.468 1560.08 427.001L1561.58 424.4ZM1510.78 373.6L1513.38 372.119C1501.4 351.017 1495.38 327.004 1495.38 300H1492.38H1489.38C1489.38 327.93 1495.62 352.983 1508.17 375.081L1510.78 373.6ZM1853.81 429.6L1852.34 432.215L1852.35 432.224L1852.37 432.232L1853.81 429.6ZM1813.41 389.2L1810.78 390.653L1810.79 390.669L1810.8 390.684L1813.41 389.2ZM1813.81 269.2L1811.22 267.686L1811.21 267.701L1811.2 267.716L1813.81 269.2ZM1855.01 229.2L1856.43 231.841L1856.44 231.833L1856.46 231.824L1855.01 229.2ZM1971.01 229.2L1969.55 231.824L1969.57 231.833L1969.58 231.841L1971.01 229.2ZM2011.81 269.2L2009.2 270.684L2009.21 270.699L2009.22 270.714L2011.81 269.2ZM2011.41 389.2L2008.83 387.657L2008.82 387.671L2008.82 387.686L2011.41 389.2ZM1969.81 429.6L1971.23 432.241L1971.24 432.238L1971.24 432.234L1969.81 429.6ZM1939.81 387.6L1941.24 390.234L1941.26 390.226L1941.27 390.219L1939.81 387.6ZM1961.41 365.2L1964.05 366.627L1964.05 366.627L1961.41 365.2ZM1952.61 280.8L1950.44 282.87L1950.46 282.896L1950.48 282.921L1952.61 280.8ZM1871.81 280.8L1869.64 278.73L1869.63 278.731L1871.81 280.8ZM1871.41 378L1869.18 380.015L1869.21 380.043L1869.23 380.069L1871.41 378ZM1911.41 443.6V440.6C1890.53 440.6 1871.83 436.037 1855.25 426.968L1853.81 429.6L1852.37 432.232C1869.92 441.83 1889.62 446.6 1911.41 446.6V443.6ZM1853.81 429.6L1855.28 426.985C1838.69 417.657 1825.62 404.585 1816.01 387.716L1813.41 389.2L1810.8 390.684C1820.93 408.481 1834.79 422.343 1852.34 432.215L1853.81 429.6ZM1813.41 389.2L1816.03 387.746C1806.71 370.919 1802.01 351.432 1802.01 329.2H1799.01H1796.01C1796.01 352.301 1800.9 372.815 1810.78 390.653L1813.41 389.2ZM1799.01 329.2H1802.01C1802.01 306.982 1806.84 287.506 1816.41 270.684L1813.81 269.2L1811.2 267.716C1801.04 285.56 1796.01 306.085 1796.01 329.2H1799.01ZM1813.81 269.2L1816.4 270.714C1826.26 253.847 1839.59 240.908 1856.43 231.841L1855.01 229.2L1853.58 226.559C1835.76 236.159 1821.62 249.887 1811.22 267.686L1813.81 269.2ZM1855.01 229.2L1856.46 231.824C1873.31 222.489 1892.14 217.8 1913.01 217.8V214.8V211.8C1891.2 211.8 1871.36 216.711 1853.55 226.576L1855.01 229.2ZM1913.01 214.8V217.8C1933.87 217.8 1952.7 222.489 1969.55 231.824L1971.01 229.2L1972.46 226.576C1954.65 216.711 1934.81 211.8 1913.01 211.8V214.8ZM1971.01 229.2L1969.58 231.841C1986.41 240.904 1999.61 253.833 2009.2 270.684L2011.81 269.2L2014.41 267.716C2004.27 249.9 1990.26 236.163 1972.43 226.559L1971.01 229.2ZM2011.81 269.2L2009.22 270.714C2019.05 287.531 2024.01 306.995 2024.01 329.2H2027.01H2030.01C2030.01 306.071 2024.83 285.536 2014.4 267.686L2011.81 269.2ZM2027.01 329.2H2024.01C2024.01 351.391 2018.92 370.844 2008.83 387.657L2011.41 389.2L2013.98 390.743C2024.69 372.889 2030.01 352.343 2030.01 329.2H2027.01ZM2011.41 389.2L2008.82 387.686C1998.96 404.549 1985.49 417.628 1968.37 426.966L1969.81 429.6L1971.24 432.234C1989.32 422.372 2003.59 408.518 2014 390.714L2011.41 389.2ZM1969.81 429.6L1968.38 426.959C1951.53 436.034 1932.56 440.6 1911.41 440.6V443.6V446.6C1933.45 446.6 1953.42 441.832 1971.23 432.241L1969.81 429.6ZM1911.41 394.8V397.8C1922.04 397.8 1932 395.277 1941.24 390.234L1939.81 387.6L1938.37 384.966C1930.02 389.523 1921.04 391.8 1911.41 391.8V394.8ZM1939.81 387.6L1941.27 390.219C1950.87 384.852 1958.46 376.952 1964.05 366.627L1961.41 365.2L1958.77 363.773C1953.68 373.181 1946.87 380.215 1938.34 384.981L1939.81 387.6ZM1961.41 365.2L1964.05 366.627C1969.67 356.222 1972.41 343.704 1972.41 329.2H1969.41H1966.41C1966.41 342.962 1963.81 354.445 1958.77 363.773L1961.41 365.2ZM1969.41 329.2H1972.41C1972.41 307.609 1966.66 290.608 1954.73 278.679L1952.61 280.8L1950.48 282.921C1960.96 293.392 1966.41 308.657 1966.41 329.2H1969.41ZM1952.61 280.8L1954.78 278.73C1943.27 266.663 1929.02 260.6 1912.21 260.6V263.6V266.6C1927.39 266.6 1940.07 272.004 1950.44 282.87L1952.61 280.8ZM1912.21 263.6V260.6C1895.39 260.6 1881.14 266.663 1869.64 278.73L1871.81 280.8L1873.98 282.87C1884.34 272.004 1897.02 266.6 1912.21 266.6V263.6ZM1871.81 280.8L1869.63 278.731C1858.27 290.665 1852.81 307.647 1852.81 329.2H1855.81H1858.81C1858.81 308.62 1864.01 293.335 1873.98 282.869L1871.81 280.8ZM1855.81 329.2H1852.81C1852.81 350.74 1858.13 367.824 1869.18 380.015L1871.41 378L1873.63 375.985C1863.89 365.243 1858.81 349.793 1858.81 329.2H1855.81ZM1871.41 378L1869.23 380.069C1880.49 391.886 1894.62 397.8 1911.41 397.8V394.8V391.8C1896.2 391.8 1883.66 386.514 1873.58 375.931L1871.41 378ZM2066.88 268.8L2064.23 267.409L2064.22 267.426L2064.21 267.442L2066.88 268.8ZM2103.68 228.8L2105.23 231.369L2105.23 231.369L2103.68 228.8ZM2196.48 224.4L2195.16 227.094L2195.19 227.105L2195.21 227.116L2196.48 224.4ZM2227.68 249.2L2225.28 250.99L2230.68 258.262V249.2H2227.68ZM2227.68 144V141H2224.68V144H2227.68ZM2284.48 144H2287.48V141H2284.48V144ZM2284.48 440V443H2287.48V440H2284.48ZM2227.68 440H2224.68V443H2227.68V440ZM2227.68 407.2H2230.68V396.867L2225.15 405.593L2227.68 407.2ZM2198.48 433.6L2197.08 430.951L2197.08 430.951L2198.48 433.6ZM2103.68 429.2L2105.27 426.651L2105.27 426.651L2103.68 429.2ZM2066.88 388.8L2064.2 390.142L2064.21 390.166L2064.23 390.19L2066.88 388.8ZM2220.08 294.4L2217.45 295.827L2217.45 295.842L2217.46 295.857L2220.08 294.4ZM2198.48 272L2196.96 274.586L2196.99 274.603L2197.02 274.619L2198.48 272ZM2140.48 271.6L2138.99 269L2138.99 269L2140.48 271.6ZM2118.88 294L2116.28 292.519L2116.27 292.531L2116.26 292.543L2118.88 294ZM2118.88 363.6L2116.23 364.997L2116.25 365.039L2116.28 365.081L2118.88 363.6ZM2140.48 386.4L2138.93 388.966L2138.95 388.976L2138.96 388.986L2140.48 386.4ZM2198.48 386.8L2199.95 389.419L2199.98 389.403L2200.01 389.386L2198.48 386.8ZM2220.08 364.4L2222.71 365.857L2222.72 365.842L2222.72 365.827L2220.08 364.4ZM2053.68 328.4H2056.68C2056.68 306.4 2061 287.011 2069.56 270.158L2066.88 268.8L2064.21 267.442C2055.17 285.256 2050.68 305.6 2050.68 328.4H2053.68ZM2066.88 268.8L2069.54 270.19C2078.38 253.302 2090.28 240.395 2105.23 231.369L2103.68 228.8L2102.13 226.231C2086.16 235.872 2073.53 249.631 2064.23 267.409L2066.88 268.8ZM2103.68 228.8L2105.23 231.369C2120.21 222.331 2136.87 217.8 2155.28 217.8V214.8V211.8C2135.83 211.8 2118.09 216.602 2102.13 226.231L2103.68 228.8ZM2155.28 214.8V217.8C2169.22 217.8 2182.5 220.893 2195.16 227.094L2196.48 224.4L2197.8 221.706C2184.33 215.107 2170.15 211.8 2155.28 211.8V214.8ZM2196.48 224.4L2195.21 227.116C2207.88 233.063 2217.87 241.031 2225.28 250.99L2227.68 249.2L2230.09 247.41C2222.03 236.569 2211.22 228.004 2197.76 221.684L2196.48 224.4ZM2227.68 249.2H2230.68V144H2227.68H2224.68V249.2H2227.68ZM2227.68 144V147H2284.48V144V141H2227.68V144ZM2284.48 144H2281.48V440H2284.48H2287.48V144H2284.48ZM2284.48 440V437H2227.68V440V443H2284.48V440ZM2227.68 440H2230.68V407.2H2227.68H2224.68V440H2227.68ZM2227.68 407.2L2225.15 405.593C2218.52 416.046 2209.2 424.505 2197.08 430.951L2198.48 433.6L2199.89 436.249C2212.84 429.362 2222.98 420.22 2230.22 408.807L2227.68 407.2ZM2198.48 433.6L2197.08 430.951C2185.04 437.352 2171.01 440.6 2154.88 440.6V443.6V446.6C2171.83 446.6 2186.86 443.181 2199.89 436.249L2198.48 433.6ZM2154.88 443.6V440.6C2136.76 440.6 2120.25 435.948 2105.27 426.651L2103.68 429.2L2102.1 431.749C2118.06 441.652 2135.67 446.6 2154.88 446.6V443.6ZM2103.68 429.2L2105.27 426.651C2090.29 417.355 2078.38 404.304 2069.54 387.41L2066.88 388.8L2064.23 390.19C2073.52 407.963 2086.15 421.845 2102.1 431.749L2103.68 429.2ZM2066.88 388.8L2069.57 387.458C2061.01 370.334 2056.68 350.672 2056.68 328.4H2053.68H2050.68C2050.68 351.461 2055.16 372.066 2064.2 390.142L2066.88 388.8ZM2228.08 329.2H2231.08C2231.08 315.21 2228.34 303.083 2222.71 292.943L2220.08 294.4L2217.46 295.857C2222.5 304.917 2225.08 315.99 2225.08 329.2H2228.08ZM2220.08 294.4L2222.72 292.973C2217.14 282.647 2209.55 274.748 2199.95 269.381L2198.48 272L2197.02 274.619C2205.55 279.385 2212.36 286.419 2217.45 295.827L2220.08 294.4ZM2198.48 272L2200.01 269.414C2190.48 263.813 2180.23 261 2169.28 261V264V267C2179.14 267 2188.35 269.52 2196.96 274.586L2198.48 272ZM2169.28 264V261C2158.37 261 2148.25 263.665 2138.99 269L2140.48 271.6L2141.98 274.2C2150.31 269.402 2159.4 267 2169.28 267V264ZM2140.48 271.6L2138.99 269C2129.67 274.364 2122.11 282.243 2116.28 292.519L2118.88 294L2121.49 295.481C2126.86 286.024 2133.7 278.969 2141.98 274.2L2140.48 271.6ZM2118.88 294L2116.26 292.543C2110.63 302.675 2107.88 314.665 2107.88 328.4H2110.88H2113.88C2113.88 315.468 2116.47 304.525 2121.51 295.457L2118.88 294ZM2110.88 328.4H2107.88C2107.88 342.14 2110.63 354.367 2116.23 364.997L2118.88 363.6L2121.54 362.203C2116.47 352.566 2113.88 341.327 2113.88 328.4H2110.88ZM2118.88 363.6L2116.28 365.081C2122.1 375.346 2129.65 383.34 2138.93 388.966L2140.48 386.4L2142.04 383.834C2133.72 378.793 2126.87 371.587 2121.49 362.119L2118.88 363.6ZM2140.48 386.4L2138.96 388.986C2148.47 394.58 2158.6 397.4 2169.28 397.4V394.4V391.4C2159.71 391.4 2150.63 388.887 2142.01 383.814L2140.48 386.4ZM2169.28 394.4V397.4C2180.2 397.4 2190.43 394.736 2199.95 389.419L2198.48 386.8L2197.02 384.181C2188.4 388.998 2179.17 391.4 2169.28 391.4V394.4ZM2198.48 386.8L2200.01 389.386C2209.55 383.769 2217.13 375.903 2222.71 365.857L2220.08 364.4L2217.46 362.943C2212.38 372.097 2205.55 379.164 2196.96 384.214L2198.48 386.8ZM2220.08 364.4L2222.72 365.827C2228.34 355.438 2231.08 343.193 2231.08 329.2H2228.08H2225.08C2225.08 342.407 2222.5 353.629 2217.45 362.973L2220.08 364.4ZM2543.58 346V349H2546.12L2546.54 346.493L2543.58 346ZM2381.58 346V343H2378.32L2378.59 346.249L2381.58 346ZM2398.38 383.6L2396.35 385.809L2396.35 385.809L2398.38 383.6ZM2479.18 370.4V367.4H2477.31L2476.49 369.074L2479.18 370.4ZM2539.58 370.4L2542.45 371.262L2543.61 367.4H2539.58V370.4ZM2502.78 423.2L2504.58 425.6L2504.59 425.592L2504.6 425.583L2502.78 423.2ZM2378.38 429.6L2376.89 432.205L2376.91 432.219L2376.94 432.232L2378.38 429.6ZM2338.78 389.2L2336.14 390.622L2336.15 390.638L2336.15 390.653L2338.78 389.2ZM2338.78 268.8L2336.14 267.378L2336.14 267.378L2338.78 268.8ZM2377.98 228.8L2379.44 231.422L2379.44 231.422L2377.98 228.8ZM2492.38 228.4L2490.94 231.03L2490.94 231.035L2490.95 231.04L2492.38 228.4ZM2531.18 267.2L2528.54 268.625L2528.55 268.65L2528.57 268.675L2531.18 267.2ZM2487.18 308.4V311.4H2490.23L2490.18 308.344L2487.18 308.4ZM2471.58 274L2469.61 276.265L2469.63 276.28L2469.65 276.295L2471.58 274ZM2399.18 273.6L2401.17 275.846L2401.17 275.842L2399.18 273.6ZM2381.98 308.4L2379.01 307.976L2378.52 311.4H2381.98V308.4ZM2545.18 324.4H2542.18C2542.18 332.271 2541.65 339.302 2540.62 345.507L2543.58 346L2546.54 346.493C2547.64 339.898 2548.18 332.529 2548.18 324.4H2545.18ZM2543.58 346V343H2381.58V346V349H2543.58V346ZM2381.58 346L2378.59 346.249C2379.97 362.842 2385.82 376.135 2396.35 385.809L2398.38 383.6L2400.41 381.391C2391.2 372.932 2385.85 361.158 2384.57 345.751L2381.58 346ZM2398.38 383.6L2396.35 385.809C2406.81 395.424 2419.69 400.2 2434.78 400.2V397.2V394.2C2421.07 394.2 2409.68 389.909 2400.41 381.391L2398.38 383.6ZM2434.78 397.2V400.2C2445.61 400.2 2455.07 397.87 2463.03 393.068C2470.99 388.262 2477.26 381.094 2481.87 371.726L2479.18 370.4L2476.49 369.074C2472.3 377.573 2466.77 383.805 2459.93 387.932C2453.08 392.063 2444.74 394.2 2434.78 394.2V397.2ZM2479.18 370.4V373.4H2539.58V370.4V367.4H2479.18V370.4ZM2539.58 370.4L2536.7 369.538C2530.49 390.25 2518.6 407.324 2500.96 420.817L2502.78 423.2L2504.6 425.583C2523.22 411.343 2535.87 393.216 2542.45 371.262L2539.58 370.4ZM2502.78 423.2L2500.98 420.8C2483.45 433.949 2461.84 440.6 2435.98 440.6V443.6V446.6C2462.92 446.6 2485.84 439.651 2504.58 425.6L2502.78 423.2ZM2435.98 443.6V440.6C2415.1 440.6 2396.4 436.037 2379.82 426.968L2378.38 429.6L2376.94 432.232C2394.49 441.83 2414.19 446.6 2435.98 446.6V443.6ZM2378.38 429.6L2379.87 426.995C2363.56 417.675 2350.74 404.611 2341.4 387.746L2338.78 389.2L2336.15 390.653C2346.01 408.455 2359.6 422.325 2376.89 432.205L2378.38 429.6ZM2338.78 389.2L2341.42 387.778C2332.36 370.944 2327.78 351.446 2327.78 329.2H2324.78H2321.78C2321.78 352.287 2326.53 372.79 2336.14 390.622L2338.78 389.2ZM2324.78 329.2H2327.78C2327.78 306.681 2332.36 287.051 2341.42 270.222L2338.78 268.8L2336.14 267.378C2326.53 285.215 2321.78 305.852 2321.78 329.2H2324.78ZM2338.78 268.8L2341.42 270.222C2350.49 253.381 2363.15 240.47 2379.44 231.422L2377.98 228.8L2376.52 226.178C2359.21 235.797 2345.74 249.552 2336.14 267.378L2338.78 268.8ZM2377.98 228.8L2379.44 231.422C2395.73 222.369 2414.55 217.8 2435.98 217.8V214.8V211.8C2413.67 211.8 2393.83 216.564 2376.52 226.178L2377.98 228.8ZM2435.98 214.8V217.8C2456.6 217.8 2474.89 222.234 2490.94 231.03L2492.38 228.4L2493.82 225.77C2476.8 216.433 2457.49 211.8 2435.98 211.8V214.8ZM2492.38 228.4L2490.95 231.04C2507.24 239.829 2519.75 252.34 2528.54 268.625L2531.18 267.2L2533.82 265.775C2524.47 248.46 2511.12 235.104 2493.8 225.76L2492.38 228.4ZM2531.18 267.2L2528.57 268.675C2537.61 284.699 2542.18 303.245 2542.18 324.4H2545.18H2548.18C2548.18 302.355 2543.41 282.768 2533.79 265.725L2531.18 267.2ZM2487.18 308.4L2490.18 308.344C2489.9 293.164 2484.37 280.849 2473.51 271.705L2471.58 274L2469.65 276.295C2479.05 284.218 2483.93 294.836 2484.18 308.456L2487.18 308.4ZM2471.58 274L2473.55 271.735C2462.81 262.416 2449.7 257.8 2434.38 257.8V260.8V263.8C2448.39 263.8 2460.08 267.984 2469.61 276.265L2471.58 274ZM2434.38 260.8V257.8C2419.84 257.8 2407.38 262.296 2397.19 271.358L2399.18 273.6L2401.17 275.842C2410.18 267.838 2421.18 263.8 2434.38 263.8V260.8ZM2399.18 273.6L2397.19 271.354C2387.22 280.186 2381.22 292.492 2379.01 307.976L2381.98 308.4L2384.95 308.824C2387 294.441 2392.47 283.547 2401.17 275.846L2399.18 273.6ZM2381.98 308.4V311.4H2487.18V308.4V305.4H2381.98V308.4Z" fill="#1E1E1E" mask="url(#path-2-outside-1_5_18)"/>
<defs>
<linearGradient id="paint0_linear_5_18" x1="352.183" y1="101.431" x2="-127.244" y2="556.055" gradientUnits="userSpaceOnUse">
<stop stop-color="#5E2FF4"/>
<stop offset="0.174673" stop-color="#8CA7FF"/>
<stop offset="0.395416" stop-color="#E4DAFF"/>
<stop offset="0.844385" stop-color="#C3B1FE"/>
<stop offset="1" stop-color="#5E2FF4"/>
</linearGradient>
</defs>
</svg>
